HIERARCHY
ROOT Hips
{
	OFFSET 0.000000 0.000000 0.000000
	CHANNELS 6 Xposition Yposition Zposition Zrotation Yrotation Xrotation
	JOINT LHipJoint
	{
		OFFSET 0.000000 0.000000 0.000000
		CHANNELS 3 Zrotation Yrotation Xrotation
		JOINT LeftUpLeg
		{
			OFFSET 0 2. 0
			CHANNELS 3 Zrotation Yrotation Xrotation
			JOINT LeftLeg
			{
				OFFSET -1. 2. 0
				CHANNELS 3 Zrotation Yrotation Xrotation
				End Site
				{
					OFFSET 0.000000 0.000000 0.000000
				}
			}
		}
	}
}

MOTION
Frames: 57
Frame Time: 0.041667
0.000000 0.000000 0.000000 0.000004 -509.274857 255.244724 0.000000 0.000000 0.000000 -0.000011 -640.809426 548.951037 0.000026 -499.156815 -548.951045 
0.000000 0.000000 0.000000 0.000002 -510.399084 284.615352 0.000000 0.000000 0.000000 -0.000011 -641.371540 563.636351 0.000026 -499.156815 -548.951045 
0.000000 0.000000 0.000000 0.000001 -511.523311 313.985981 0.000000 0.000000 0.000000 -0.000012 -641.933653 578.321666 0.000026 -499.156815 -548.951045 
0.000000 0.000000 0.000000 -0.000000 -512.647538 343.356609 0.000000 0.000000 0.000000 -0.000013 -642.495767 593.006980 0.000026 -499.156815 -548.951045 
0.000000 0.000000 0.000000 -0.000001 -513.771765 372.727238 0.000000 0.000000 0.000000 -0.000013 -643.057880 607.692294 0.000026 -499.156815 -548.951045 
0.000000 0.000000 0.000000 -0.000003 -514.895993 402.097867 0.000000 0.000000 0.000000 -0.000014 -643.619994 622.377609 0.000026 -499.156815 -548.951045 
0.000000 0.000000 0.000000 -0.000004 -516.020220 431.468495 0.000000 0.000000 0.000000 -0.000015 -644.182107 637.062923 0.000026 -499.156815 -548.951045 
0.000000 0.000000 0.000000 -0.000005 -517.144447 460.839124 0.000000 0.000000 0.000000 -0.000015 -644.744221 651.748237 0.000026 -499.156815 -548.951045 
0.000000 0.000000 0.000000 -0.000006 -518.268674 490.209752 0.000000 0.000000 0.000000 -0.000016 -645.306334 666.433551 0.000026 -499.156815 -548.951045 
0.000000 0.000000 0.000000 -0.000008 -519.392901 519.580381 0.000000 0.000000 0.000000 -0.000017 -645.868448 681.118866 0.000026 -499.156815 -548.951045 
0.000000 0.000000 0.000000 -0.000009 -520.517128 548.951009 0.000000 0.000000 0.000000 -0.000017 -646.430562 695.804180 0.000026 -499.156815 -548.951045 
0.000000 0.000000 0.000000 -0.000010 -521.641355 578.321638 0.000000 0.000000 0.000000 -0.000018 -646.992675 710.489494 0.000026 -499.156815 -548.951045 
0.000000 0.000000 0.000000 -0.000011 -522.765582 607.692267 0.000000 0.000000 0.000000 -0.000018 -647.554789 725.174809 0.000026 -499.156815 -548.951045 
0.000000 0.000000 0.000000 -0.000013 -523.889809 637.062895 0.000000 0.000000 0.000000 -0.000019 -648.116902 739.860123 0.000026 -499.156815 -548.951045 
0.000000 0.000000 0.000000 -0.000014 -525.014036 666.433524 0.000000 0.000000 0.000000 -0.000020 -648.679016 754.545437 0.000026 -499.156815 -548.951045 
0.000000 0.000000 0.000000 -0.000015 -526.138263 695.804152 0.000000 0.000000 0.000000 -0.000020 -649.241129 769.230751 0.000026 -499.156815 -548.951045 
0.000000 0.000000 0.000000 -0.000017 -527.262491 725.174781 0.000000 0.000000 0.000000 -0.000021 -649.803243 783.916066 0.000026 -499.156815 -548.951045 
0.000000 0.000000 0.000000 -0.000018 -528.386718 754.545409 0.000000 0.000000 0.000000 -0.000022 -650.365356 798.601380 0.000026 -499.156815 -548.951045 
0.000000 0.000000 0.000000 -0.000019 -529.510945 783.916038 0.000000 0.000000 0.000000 -0.000022 -650.927470 813.286694 0.000026 -499.156815 -548.951045 
0.000000 0.000000 0.000000 -0.000020 -530.635172 813.286667 0.000000 0.000000 0.000000 -0.000023 -651.489583 827.972009 0.000026 -499.156815 -548.951045 
0.000000 0.000000 0.000000 -0.000022 -531.759399 842.657295 0.000000 0.000000 0.000000 -0.000023 -652.051697 842.657323 0.000026 -499.156815 -548.951045 
0.000000 0.000000 0.000000 -0.000023 -532.883626 872.027924 0.000000 0.000000 0.000000 -0.000024 -652.613811 857.342637 0.000026 -499.156815 -548.951045 
0.000000 0.000000 0.000000 -0.000024 -534.007853 901.398552 0.000000 0.000000 0.000000 -0.000025 -653.175924 872.027951 0.000026 -499.156815 -548.951045 
0.000000 0.000000 0.000000 -0.000025 -535.132080 930.769181 0.000000 0.000000 0.000000 -0.000025 -653.738038 886.713266 0.000026 -499.156815 -548.951045 
0.000000 0.000000 0.000000 -0.000027 -536.256307 960.139809 0.000000 0.000000 0.000000 -0.000026 -654.300151 901.398580 0.000026 -499.156815 -548.951045 
0.000000 0.000000 0.000000 -0.000028 -537.380534 989.510438 0.000000 0.000000 0.000000 -0.000027 -654.862265 916.083894 0.000026 -499.156815 -548.951045 
0.000000 0.000000 0.000000 -0.000029 -538.504762 1018.881066 0.000000 0.000000 0.000000 -0.000027 -655.424378 930.769208 0.000026 -499.156815 -548.951045 
0.000000 0.000000 0.000000 -0.000030 -539.628989 1048.251695 0.000000 0.000000 0.000000 -0.000028 -655.986492 945.454523 0.000026 -499.156815 -548.951045 
0.000000 0.000000 0.000000 -0.000032 -540.753216 1077.622324 0.000000 0.000000 0.000000 -0.000029 -656.548605 960.139837 0.000026 -499.156815 -548.951045 
0.000000 0.000000 0.000000 -0.000033 -541.877443 1106.992952 0.000000 0.000000 0.000000 -0.000029 -657.110719 974.825151 0.000026 -499.156815 -548.951045 
0.000000 0.000000 0.000000 -0.000034 -543.001670 1136.363581 0.000000 0.000000 0.000000 -0.000030 -657.672832 989.510466 0.000026 -499.156815 -548.951045 
0.000000 0.000000 0.000000 -0.000035 -544.013474 1157.342603 0.000000 0.000000 0.000000 -0.000030 -658.010101 996.503473 0.000026 -499.156815 -548.951045 
0.000000 0.000000 0.000000 -0.000036 -545.025279 1178.321625 0.000000 0.000000 0.000000 -0.000031 -658.347369 1003.496480 0.000026 -499.156815 -548.951045 
0.000000 0.000000 0.000000 -0.000038 -546.037083 1199.300648 0.000000 0.000000 0.000000 -0.000031 -658.684637 1010.489488 0.000026 -499.156815 -548.951045 
0.000000 0.000000 0.000000 -0.000039 -547.048888 1220.279670 0.000000 0.000000 0.000000 -0.000031 -659.021905 1017.482495 0.000026 -499.156815 -548.951045 
0.000000 0.000000 0.000000 -0.000040 -548.060692 1241.258692 0.000000 0.000000 0.000000 -0.000032 -659.359173 1024.475503 0.000026 -499.156815 -548.951045 
0.000000 0.000000 0.000000 -0.000041 -549.072497 1262.237715 0.000000 0.000000 0.000000 -0.000032 -659.696442 1031.468510 0.000026 -499.156815 -548.951045 
0.000000 0.000000 0.000000 -0.000042 -550.084301 1283.216737 0.000000 0.000000 0.000000 -0.000032 -660.033710 1038.461518 0.000026 -499.156815 -548.951045 
0.000000 0.000000 0.000000 -0.000043 -551.096106 1304.195759 0.000000 0.000000 0.000000 -0.000033 -660.370978 1045.454525 0.000026 -499.156815 -548.951045 
0.000000 0.000000 0.000000 -0.000044 -552.107910 1325.174782 0.000000 0.000000 0.000000 -0.000033 -660.708246 1052.447533 0.000026 -499.156815 -548.951045 
0.000000 0.000000 0.000000 -0.000045 -553.119715 1346.153804 0.000000 0.000000 0.000000 -0.000033 -661.045514 1059.440540 0.000026 -499.156815 -548.951045 
0.000000 0.000000 0.000000 -0.000046 -554.131519 1367.132826 0.000000 0.000000 0.000000 -0.000034 -661.382782 1066.433547 0.000026 -499.156815 -548.951045 
0.000000 0.000000 0.000000 -0.000047 -555.143324 1388.111848 0.000000 0.000000 0.000000 -0.000034 -661.720051 1073.426555 0.000026 -499.156815 -548.951045 
0.000000 0.000000 0.000000 -0.000049 -556.155129 1409.090871 0.000000 0.000000 0.000000 -0.000035 -662.057319 1080.419562 0.000026 -499.156815 -548.951045 
0.000000 0.000000 0.000000 -0.000050 -557.166933 1430.069893 0.000000 0.000000 0.000000 -0.000035 -662.394587 1087.412570 0.000026 -499.156815 -548.951045 
0.000000 0.000000 0.000000 -0.000051 -558.178738 1451.048915 0.000000 0.000000 0.000000 -0.000035 -662.731855 1094.405577 0.000026 -499.156815 -548.951045 
0.000000 0.000000 0.000000 -0.000052 -559.190542 1472.027938 0.000000 0.000000 0.000000 -0.000036 -663.069123 1101.398585 0.000026 -499.156815 -548.951045 
0.000000 0.000000 0.000000 -0.000053 -560.202347 1493.006960 0.000000 0.000000 0.000000 -0.000036 -663.406391 1108.391592 0.000026 -499.156815 -548.951045 
0.000000 0.000000 0.000000 -0.000054 -561.214151 1513.985982 0.000000 0.000000 0.000000 -0.000036 -663.743660 1115.384599 0.000026 -499.156815 -548.951045 
0.000000 0.000000 0.000000 -0.000055 -562.225956 1534.965005 0.000000 0.000000 0.000000 -0.000037 -664.080928 1122.377607 0.000026 -499.156815 -548.951045 
0.000000 0.000000 0.000000 -0.000056 -563.237760 1555.944027 0.000000 0.000000 0.000000 -0.000037 -664.418196 1129.370614 0.000026 -499.156815 -548.951045 
0.000000 0.000000 0.000000 -0.000057 -564.249565 1576.923049 0.000000 0.000000 0.000000 -0.000038 -664.755464 1136.363622 0.000026 -499.156815 -548.951045 
0.000000 0.000000 0.000000 -0.000058 -565.261369 1597.902072 0.000000 0.000000 0.000000 -0.000038 -665.092732 1143.356629 0.000026 -499.156815 -548.951045 
0.000000 0.000000 0.000000 -0.000060 -566.273174 1618.881094 0.000000 0.000000 0.000000 -0.000038 -665.430000 1150.349637 0.000026 -499.156815 -548.951045 
0.000000 0.000000 0.000000 -0.000061 -567.284978 1639.860116 0.000000 0.000000 0.000000 -0.000039 -665.767269 1157.342644 0.000026 -499.156815 -548.951045 
0.000000 0.000000 0.000000 -0.000062 -568.296783 1660.839139 0.000000 0.000000 0.000000 -0.000039 -666.104537 1164.335652 0.000026 -499.156815 -548.951045 
0.000000 0.000000 0.000000 -0.000063 -569.308587 1681.818161 0.000000 0.000000 0.000000 -0.000039 -666.441805 1171.328659 0.000026 -499.156815 -548.951045 
